<svg width="1282" height="189" viewBox="0 0 1282 189" fill="none" xmlns="http://www.w3.org/2000/svg">
<path d="M34.1 187H0.1V41.3H34.1V187ZM189.409 41.3V187H171.809C169.209 187 167.009 186.6 165.209 185.8C163.476 184.933 161.743 183.467 160.009 181.4L91.3094 94.5C91.576 97.1 91.7427 99.6333 91.8094 102.1C91.9427 104.5 92.0094 106.767 92.0094 108.9V187H62.2094V41.3H80.0094C81.476 41.3 82.7094 41.3667 83.7094 41.5C84.7094 41.6333 85.6094 41.9 86.4094 42.3C87.2094 42.6333 87.976 43.1333 88.7094 43.8C89.4427 44.4667 90.276 45.3667 91.2094 46.5L160.509 134C160.176 131.2 159.943 128.5 159.809 125.9C159.676 123.233 159.609 120.733 159.609 118.4V41.3H189.409ZM344.878 41.3V187H327.278C324.678 187 322.478 186.6 320.678 185.8C318.945 184.933 317.211 183.467 315.478 181.4L246.778 94.5C247.045 97.1 247.211 99.6333 247.278 102.1C247.411 104.5 247.478 106.767 247.478 108.9V187H217.678V41.3H235.478C236.945 41.3 238.178 41.3667 239.178 41.5C240.178 41.6333 241.078 41.9 241.878 42.3C242.678 42.6333 243.445 43.1333 244.178 43.8C244.911 44.4667 245.745 45.3667 246.678 46.5L315.978 134C315.645 131.2 315.411 128.5 315.278 125.9C315.145 123.233 315.078 120.733 315.078 118.4V41.3H344.878ZM516.147 114.1C516.147 124.633 514.314 134.433 510.647 143.5C507.047 152.567 501.947 160.467 495.347 167.2C488.747 173.867 480.78 179.1 471.447 182.9C462.18 186.7 451.88 188.6 440.547 188.6C429.214 188.6 418.88 186.7 409.547 182.9C400.214 179.1 392.214 173.867 385.547 167.2C378.947 160.467 373.814 152.567 370.147 143.5C366.547 134.433 364.747 124.633 364.747 114.1C364.747 103.567 366.547 93.7667 370.147 84.7C373.814 75.6333 378.947 67.7667 385.547 61.1C392.214 54.4333 400.214 49.2 409.547 45.4C418.88 41.6 429.214 39.7 440.547 39.7C451.88 39.7 462.18 41.6333 471.447 45.5C480.78 49.3 488.747 54.5333 495.347 61.2C501.947 67.8667 507.047 75.7333 510.647 84.8C514.314 93.8667 516.147 103.633 516.147 114.1ZM481.547 114.1C481.547 106.9 480.614 100.433 478.747 94.7C476.88 88.9 474.18 84 470.647 80C467.18 76 462.914 72.9333 457.847 70.8C452.78 68.6667 447.014 67.6 440.547 67.6C434.014 67.6 428.18 68.6667 423.047 70.8C417.98 72.9333 413.68 76 410.147 80C406.68 84 404.014 88.9 402.147 94.7C400.28 100.433 399.347 106.9 399.347 114.1C399.347 121.367 400.28 127.9 402.147 133.7C404.014 139.433 406.68 144.3 410.147 148.3C413.68 152.3 417.98 155.367 423.047 157.5C428.18 159.567 434.014 160.6 440.547 160.6C447.014 160.6 452.78 159.567 457.847 157.5C462.914 155.367 467.18 152.3 470.647 148.3C474.18 144.3 476.88 139.433 478.747 133.7C480.614 127.9 481.547 121.367 481.547 114.1ZM661.464 41.3L603.064 187H572.464L514.064 41.3H541.264C544.197 41.3 546.564 42 548.364 43.4C550.164 44.7333 551.531 46.4667 552.464 48.6L580.664 126.6C581.997 130 583.297 133.733 584.564 137.8C585.831 141.8 587.031 146 588.164 150.4C589.097 146 590.131 141.8 591.264 137.8C592.464 133.733 593.731 130 595.064 126.6L623.064 48.6C623.797 46.7333 625.097 45.0667 626.964 43.6C628.897 42.0667 631.264 41.3 634.064 41.3H661.464ZM737.842 131.3L724.342 91.4C723.342 88.8667 722.276 85.9 721.142 82.5C720.009 79.0333 718.876 75.3 717.742 71.3C716.742 75.3667 715.676 79.1333 714.542 82.6C713.409 86.0667 712.342 89.0667 711.342 91.6L697.942 131.3H737.842ZM791.542 187H765.342C762.409 187 760.042 186.333 758.242 185C756.442 183.6 755.076 181.833 754.142 179.7L745.542 154.3H690.142L681.542 179.7C680.809 181.567 679.476 183.267 677.542 184.8C675.676 186.267 673.342 187 670.542 187H644.142L700.542 41.3H735.142L791.542 187ZM896.347 149.3C897.147 149.3 897.947 149.467 898.747 149.8C899.547 150.067 900.314 150.567 901.047 151.3L914.447 165.4C908.58 173.067 901.214 178.867 892.347 182.8C883.547 186.667 873.114 188.6 861.047 188.6C849.98 188.6 840.047 186.733 831.247 183C822.514 179.2 815.08 174 808.947 167.4C802.88 160.733 798.214 152.867 794.947 143.8C791.68 134.667 790.047 124.767 790.047 114.1C790.047 103.233 791.814 93.2667 795.347 84.2C798.88 75.0667 803.847 67.2 810.247 60.6C816.647 54 824.314 48.8667 833.247 45.2C842.18 41.5333 852.014 39.7 862.747 39.7C868.214 39.7 873.347 40.2 878.147 41.2C883.014 42.1333 887.547 43.4667 891.747 45.2C895.947 46.8667 899.814 48.9 903.347 51.3C906.88 53.7 910.014 56.3 912.747 59.1L901.347 74.4C900.614 75.3333 899.747 76.2 898.747 77C897.747 77.7333 896.347 78.1 894.547 78.1C893.347 78.1 892.214 77.8333 891.147 77.3C890.08 76.7667 888.947 76.1333 887.747 75.4C886.547 74.6 885.214 73.7667 883.747 72.9C882.347 71.9667 880.647 71.1333 878.647 70.4C876.714 69.6 874.414 68.9333 871.747 68.4C869.147 67.8667 866.08 67.6 862.547 67.6C856.947 67.6 851.814 68.6333 847.147 70.7C842.547 72.7667 838.547 75.8 835.147 79.8C831.814 83.7333 829.214 88.6 827.347 94.4C825.547 100.133 824.647 106.7 824.647 114.1C824.647 121.567 825.647 128.2 827.647 134C829.714 139.8 832.48 144.7 835.947 148.7C839.48 152.633 843.58 155.633 848.247 157.7C852.914 159.767 857.914 160.8 863.247 160.8C866.314 160.8 869.114 160.667 871.647 160.4C874.18 160.067 876.547 159.567 878.747 158.9C880.947 158.167 883.014 157.233 884.947 156.1C886.88 154.9 888.847 153.4 890.847 151.6C891.647 150.933 892.514 150.4 893.447 150C894.38 149.533 895.347 149.3 896.347 149.3ZM963.202 187H929.202V41.3H963.202V187ZM1134.31 114.1C1134.31 124.633 1132.48 134.433 1128.81 143.5C1125.21 152.567 1120.11 160.467 1113.51 167.2C1106.91 173.867 1098.94 179.1 1089.61 182.9C1080.34 186.7 1070.04 188.6 1058.71 188.6C1047.38 188.6 1037.04 186.7 1027.71 182.9C1018.38 179.1 1010.38 173.867 1003.71 167.2C997.111 160.467 991.978 152.567 988.311 143.5C984.711 134.433 982.911 124.633 982.911 114.1C982.911 103.567 984.711 93.7667 988.311 84.7C991.978 75.6333 997.111 67.7667 1003.71 61.1C1010.38 54.4333 1018.38 49.2 1027.71 45.4C1037.04 41.6 1047.38 39.7 1058.71 39.7C1070.04 39.7 1080.34 41.6333 1089.61 45.5C1098.94 49.3 1106.91 54.5333 1113.51 61.2C1120.11 67.8667 1125.21 75.7333 1128.81 84.8C1132.48 93.8667 1134.31 103.633 1134.31 114.1ZM1099.71 114.1C1099.71 106.9 1098.78 100.433 1096.91 94.7C1095.04 88.9 1092.34 84 1088.81 80C1085.34 76 1081.08 72.9333 1076.01 70.8C1070.94 68.6667 1065.18 67.6 1058.71 67.6C1052.18 67.6 1046.34 68.6667 1041.21 70.8C1036.14 72.9333 1031.84 76 1028.31 80C1024.84 84 1022.18 88.9 1020.31 94.7C1018.44 100.433 1017.51 106.9 1017.51 114.1C1017.51 121.367 1018.44 127.9 1020.31 133.7C1022.18 139.433 1024.84 144.3 1028.31 148.3C1031.84 152.3 1036.14 155.367 1041.21 157.5C1046.34 159.567 1052.18 160.6 1058.71 160.6C1065.18 160.6 1070.94 159.567 1076.01 157.5C1081.08 155.367 1085.34 152.3 1088.81 148.3C1092.34 144.3 1095.04 139.433 1096.91 133.7C1098.78 127.9 1099.71 121.367 1099.71 114.1ZM1104.81 0.29999L1072.51 28.8C1071.71 29.5333 1070.94 30.1 1070.21 30.5C1069.48 30.9 1068.71 31.2 1067.91 31.4C1067.11 31.6 1066.24 31.7333 1065.31 31.8C1064.44 31.8667 1063.44 31.9 1062.31 31.9H1039.71L1058.61 4.89999C1059.41 3.83332 1060.18 2.99999 1060.91 2.39999C1061.71 1.73333 1062.54 1.26666 1063.41 0.999987C1064.34 0.666654 1065.38 0.466656 1066.51 0.399994C1067.71 0.333325 1069.08 0.29999 1070.61 0.29999H1104.81ZM1281.4 41.3V187H1263.8C1261.2 187 1259 186.6 1257.2 185.8C1255.47 184.933 1253.73 183.467 1252 181.4L1183.3 94.5C1183.57 97.1 1183.73 99.6333 1183.8 102.1C1183.93 104.5 1184 106.767 1184 108.9V187H1154.2V41.3H1172C1173.47 41.3 1174.7 41.3667 1175.7 41.5C1176.7 41.6333 1177.6 41.9 1178.4 42.3C1179.2 42.6333 1179.97 43.1333 1180.7 43.8C1181.43 44.4667 1182.27 45.3667 1183.2 46.5L1252.5 134C1252.17 131.2 1251.93 128.5 1251.8 125.9C1251.67 123.233 1251.6 120.733 1251.6 118.4V41.3H1281.4Z" fill="#754FE2" fill-opacity="0.1"/>
</svg>
