<svg width="643" height="150" viewBox="0 0 643 150" fill="none" xmlns="http://www.w3.org/2000/svg">
<path d="M94.1 92.3L80.6 52.4C79.6 49.8667 78.5333 46.9 77.4 43.5C76.2667 40.0333 75.1333 36.3 74 32.3C73 36.3667 71.9333 40.1333 70.8 43.6C69.6667 47.0667 68.6 50.0667 67.6 52.6L54.2 92.3H94.1ZM147.8 148H121.6C118.667 148 116.3 147.333 114.5 146C112.7 144.6 111.333 142.833 110.4 140.7L101.8 115.3H46.4L37.8 140.7C37.0667 142.567 35.7333 144.267 33.8 145.8C31.9333 147.267 29.6 148 26.8 148H0.4L56.8 2.3H91.4L147.8 148ZM286.488 2.3V148H268.888C266.288 148 264.088 147.6 262.288 146.8C260.554 145.933 258.821 144.467 257.088 142.4L188.388 55.5C188.654 58.1 188.821 60.6333 188.888 63.1C189.021 65.5 189.088 67.7667 189.088 69.9V148H159.288V2.3H177.088C178.554 2.3 179.788 2.36666 180.788 2.5C181.788 2.63333 182.688 2.89999 183.488 3.3C184.288 3.63333 185.054 4.13333 185.788 4.8C186.521 5.46666 187.354 6.36666 188.288 7.49999L257.588 95C257.254 92.2 257.021 89.5 256.888 86.9C256.754 84.2333 256.688 81.7333 256.688 79.4V2.3H286.488ZM419.456 29.1H378.456V148H344.656V29.1H303.656V2.3H419.456V29.1ZM470.631 28.3V62.3H516.431V87.3H470.631V122H530.431V148H436.631V2.3H530.431V28.3H470.631ZM631.78 31.9C630.78 33.5 629.713 34.7 628.58 35.5C627.513 36.3 626.113 36.7 624.38 36.7C622.846 36.7 621.18 36.2333 619.38 35.3C617.646 34.3 615.646 33.2 613.38 32C611.18 30.8 608.646 29.7333 605.78 28.8C602.913 27.8 599.646 27.3 595.98 27.3C589.646 27.3 584.913 28.6667 581.78 31.4C578.713 34.0667 577.18 37.7 577.18 42.3C577.18 45.2333 578.113 47.6667 579.98 49.6C581.846 51.5333 584.28 53.2 587.28 54.6C590.346 56 593.813 57.3 597.68 58.5C601.613 59.6333 605.613 60.9333 609.68 62.4C613.746 63.8 617.713 65.4667 621.58 67.4C625.513 69.3333 628.98 71.8 631.98 74.8C635.046 77.8 637.513 81.4667 639.38 85.8C641.246 90.0667 642.18 95.2333 642.18 101.3C642.18 108.033 641.013 114.333 638.68 120.2C636.346 126.067 632.946 131.2 628.48 135.6C624.08 139.933 618.613 143.367 612.08 145.9C605.613 148.367 598.246 149.6 589.98 149.6C585.446 149.6 580.813 149.133 576.08 148.2C571.413 147.267 566.88 145.967 562.48 144.3C558.08 142.567 553.946 140.533 550.08 138.2C546.213 135.867 542.846 133.267 539.98 130.4L549.98 114.6C550.78 113.467 551.813 112.533 553.08 111.8C554.413 111 555.846 110.6 557.38 110.6C559.38 110.6 561.38 111.233 563.38 112.5C565.446 113.767 567.746 115.167 570.28 116.7C572.88 118.233 575.846 119.633 579.18 120.9C582.513 122.167 586.446 122.8 590.98 122.8C597.113 122.8 601.88 121.467 605.28 118.8C608.68 116.067 610.38 111.767 610.38 105.9C610.38 102.5 609.446 99.7333 607.58 97.6C605.713 95.4667 603.246 93.7 600.18 92.3C597.18 90.9 593.746 89.6667 589.88 88.6C586.013 87.5333 582.046 86.3667 577.98 85.1C573.913 83.7667 569.946 82.1667 566.08 80.3C562.213 78.3667 558.746 75.8667 555.68 72.8C552.68 69.6667 550.246 65.8 548.38 61.2C546.513 56.5333 545.58 50.8 545.58 44C545.58 38.5333 546.68 33.2 548.88 28C551.08 22.8 554.313 18.1667 558.58 14.1C562.846 10.0333 568.08 6.79999 574.28 4.39999C580.48 1.93333 587.58 0.699995 595.58 0.699995C600.046 0.699995 604.38 1.06666 608.58 1.8C612.846 2.46666 616.88 3.49999 620.68 4.89999C624.48 6.23333 628.013 7.86666 631.28 9.79999C634.613 11.6667 637.58 13.8 640.18 16.2L631.78 31.9Z" fill="#02FFD9" fill-opacity="0.07"/>
</svg>
