<svg width="861" height="189" viewBox="0 0 861 189" fill="none" xmlns="http://www.w3.org/2000/svg">
<path d="M132.3 114.1C132.3 124.633 130.467 134.367 126.8 143.3C123.2 152.167 118.1 159.867 111.5 166.4C104.9 172.867 96.9333 177.933 87.6 181.6C78.3333 185.2 68.0333 187 56.7 187H0.1V41.3H56.7C68.0333 41.3 78.3333 43.1333 87.6 46.8C96.9333 50.4667 104.9 55.5333 111.5 62C118.1 68.4667 123.2 76.1667 126.8 85.1C130.467 93.9667 132.3 103.633 132.3 114.1ZM97.7 114.1C97.7 106.9 96.7667 100.4 94.9 94.6C93.0333 88.8 90.3333 83.9 86.8 79.9C83.3333 75.8333 79.0667 72.7333 74 70.6C68.9333 68.4 63.1667 67.3 56.7 67.3H34.1V161H56.7C63.1667 161 68.9333 159.933 74 157.8C79.0667 155.6 83.3333 152.5 86.8 148.5C90.3333 144.433 93.0333 139.5 94.9 133.7C96.7667 127.9 97.7 121.367 97.7 114.1ZM186.248 67.3V101.3H232.048V126.3H186.248V161H246.048V187H152.248V41.3H246.048V67.3H186.248ZM347.397 70.9C346.397 72.5 345.33 73.7 344.197 74.5C343.13 75.3 341.73 75.7 339.997 75.7C338.464 75.7 336.797 75.2333 334.997 74.3C333.264 73.3 331.264 72.2 328.997 71C326.797 69.8 324.264 68.7333 321.397 67.8C318.53 66.8 315.264 66.3 311.597 66.3C305.264 66.3 300.53 67.6667 297.397 70.4C294.33 73.0667 292.797 76.7 292.797 81.3C292.797 84.2333 293.73 86.6667 295.597 88.6C297.464 90.5333 299.897 92.2 302.897 93.6C305.964 95 309.43 96.3 313.297 97.5C317.23 98.6333 321.23 99.9333 325.297 101.4C329.364 102.8 333.33 104.467 337.197 106.4C341.13 108.333 344.597 110.8 347.597 113.8C350.664 116.8 353.13 120.467 354.997 124.8C356.864 129.067 357.797 134.233 357.797 140.3C357.797 147.033 356.63 153.333 354.297 159.2C351.964 165.067 348.564 170.2 344.097 174.6C339.697 178.933 334.23 182.367 327.697 184.9C321.23 187.367 313.864 188.6 305.597 188.6C301.064 188.6 296.43 188.133 291.697 187.2C287.03 186.267 282.497 184.967 278.097 183.3C273.697 181.567 269.564 179.533 265.697 177.2C261.83 174.867 258.464 172.267 255.597 169.4L265.597 153.6C266.397 152.467 267.43 151.533 268.697 150.8C270.03 150 271.464 149.6 272.997 149.6C274.997 149.6 276.997 150.233 278.997 151.5C281.064 152.767 283.364 154.167 285.897 155.7C288.497 157.233 291.464 158.633 294.797 159.9C298.13 161.167 302.064 161.8 306.597 161.8C312.73 161.8 317.497 160.467 320.897 157.8C324.297 155.067 325.997 150.767 325.997 144.9C325.997 141.5 325.064 138.733 323.197 136.6C321.33 134.467 318.864 132.7 315.797 131.3C312.797 129.9 309.364 128.667 305.497 127.6C301.63 126.533 297.664 125.367 293.597 124.1C289.53 122.767 285.564 121.167 281.697 119.3C277.83 117.367 274.364 114.867 271.297 111.8C268.297 108.667 265.864 104.8 263.997 100.2C262.13 95.5333 261.197 89.8 261.197 83C261.197 77.5333 262.297 72.2 264.497 67C266.697 61.8 269.93 57.1667 274.197 53.1C278.464 49.0333 283.697 45.8 289.897 43.4C296.097 40.9333 303.197 39.7 311.197 39.7C315.664 39.7 319.997 40.0667 324.197 40.8C328.464 41.4667 332.497 42.5 336.297 43.9C340.097 45.2333 343.63 46.8667 346.897 48.8C350.23 50.6667 353.197 52.8 355.797 55.2L347.397 70.9ZM429.039 112.8C437.839 112.8 444.172 110.7 448.039 106.5C451.906 102.3 453.839 96.4333 453.839 88.9C453.839 85.5667 453.339 82.5333 452.339 79.8C451.339 77.0667 449.806 74.7333 447.739 72.8C445.739 70.8 443.172 69.2667 440.039 68.2C436.972 67.1333 433.306 66.6 429.039 66.6H411.439V112.8H429.039ZM429.039 41.3C439.306 41.3 448.106 42.5333 455.439 45C462.839 47.4 468.906 50.7333 473.639 55C478.439 59.2667 481.972 64.3 484.239 70.1C486.506 75.9 487.639 82.1667 487.639 88.9C487.639 96.1667 486.472 102.833 484.139 108.9C481.806 114.967 478.239 120.167 473.439 124.5C468.639 128.833 462.539 132.233 455.139 134.7C447.806 137.1 439.106 138.3 429.039 138.3H411.439V187H377.639V41.3H429.039ZM565.588 160.3C570.121 160.3 574.154 159.567 577.688 158.1C581.288 156.567 584.321 154.4 586.788 151.6C589.254 148.8 591.121 145.4 592.388 141.4C593.721 137.333 594.388 132.733 594.388 127.6V41.3H628.188V127.6C628.188 136.533 626.721 144.733 623.788 152.2C620.921 159.667 616.788 166.1 611.388 171.5C605.988 176.9 599.421 181.1 591.687 184.1C583.954 187.1 575.254 188.6 565.588 188.6C555.854 188.6 547.121 187.1 539.388 184.1C531.654 181.1 525.088 176.9 519.688 171.5C514.288 166.1 510.154 159.667 507.288 152.2C504.421 144.733 502.988 136.533 502.988 127.6V41.3H536.788V127.5C536.788 132.633 537.421 137.233 538.688 141.3C540.021 145.3 541.921 148.733 544.388 151.6C546.854 154.4 549.854 156.567 553.388 158.1C556.988 159.567 561.054 160.3 565.588 160.3ZM688.592 67.3V101.3H734.392V126.3H688.592V161H748.392V187H654.592V41.3H748.392V67.3H688.592ZM749.092 0.29999L716.792 28.8C715.992 29.5333 715.226 30.1 714.492 30.5C713.759 30.9 712.992 31.2 712.192 31.4C711.392 31.6 710.526 31.7333 709.592 31.8C708.726 31.8667 707.726 31.9 706.592 31.9H683.992L702.892 4.89999C703.692 3.83332 704.459 2.99999 705.192 2.39999C705.992 1.73333 706.826 1.26666 707.692 0.999987C708.626 0.666654 709.659 0.466656 710.792 0.399994C711.992 0.333325 713.359 0.29999 714.892 0.29999H749.092ZM849.741 70.9C848.741 72.5 847.674 73.7 846.541 74.5C845.474 75.3 844.074 75.7 842.341 75.7C840.807 75.7 839.141 75.2333 837.341 74.3C835.607 73.3 833.607 72.2 831.341 71C829.141 69.8 826.607 68.7333 823.741 67.8C820.874 66.8 817.607 66.3 813.941 66.3C807.607 66.3 802.874 67.6667 799.741 70.4C796.674 73.0667 795.141 76.7 795.141 81.3C795.141 84.2333 796.074 86.6667 797.941 88.6C799.807 90.5333 802.241 92.2 805.241 93.6C808.307 95 811.774 96.3 815.641 97.5C819.574 98.6333 823.574 99.9333 827.641 101.4C831.707 102.8 835.674 104.467 839.541 106.4C843.474 108.333 846.941 110.8 849.941 113.8C853.007 116.8 855.474 120.467 857.341 124.8C859.207 129.067 860.141 134.233 860.141 140.3C860.141 147.033 858.974 153.333 856.641 159.2C854.307 165.067 850.907 170.2 846.441 174.6C842.041 178.933 836.574 182.367 830.041 184.9C823.574 187.367 816.207 188.6 807.941 188.6C803.407 188.6 798.774 188.133 794.041 187.2C789.374 186.267 784.841 184.967 780.441 183.3C776.041 181.567 771.907 179.533 768.041 177.2C764.174 174.867 760.807 172.267 757.941 169.4L767.941 153.6C768.741 152.467 769.774 151.533 771.041 150.8C772.374 150 773.807 149.6 775.341 149.6C777.341 149.6 779.341 150.233 781.341 151.5C783.407 152.767 785.707 154.167 788.241 155.7C790.841 157.233 793.807 158.633 797.141 159.9C800.474 161.167 804.407 161.8 808.941 161.8C815.074 161.8 819.841 160.467 823.241 157.8C826.641 155.067 828.341 150.767 828.341 144.9C828.341 141.5 827.407 138.733 825.541 136.6C823.674 134.467 821.207 132.7 818.141 131.3C815.141 129.9 811.707 128.667 807.841 127.6C803.974 126.533 800.007 125.367 795.941 124.1C791.874 122.767 787.907 121.167 784.041 119.3C780.174 117.367 776.707 114.867 773.641 111.8C770.641 108.667 768.207 104.8 766.341 100.2C764.474 95.5333 763.541 89.8 763.541 83C763.541 77.5333 764.641 72.2 766.841 67C769.041 61.8 772.274 57.1667 776.541 53.1C780.807 49.0333 786.041 45.8 792.241 43.4C798.441 40.9333 805.541 39.7 813.541 39.7C818.007 39.7 822.341 40.0667 826.541 40.8C830.807 41.4667 834.841 42.5 838.641 43.9C842.441 45.2333 845.974 46.8667 849.241 48.8C852.574 50.6667 855.541 52.8 858.141 55.2L849.741 70.9Z" fill="#02FFD9" fill-opacity="0.07"/>
</svg>
